<svg width="158" height="40" viewBox="0 0 158 40" fill="none" xmlns="http://www.w3.org/2000/svg">
<path d="M59.4545 11.5455H64.1932V22.7273C64.1932 24.0568 63.875 25.2074 63.2386 26.179C62.608 27.1449 61.7273 27.892 60.5966 28.4205C59.4659 28.9432 58.1534 29.2045 56.6591 29.2045C55.1534 29.2045 53.8352 28.9432 52.7045 28.4205C51.5739 27.892 50.6932 27.1449 50.0625 26.179C49.4375 25.2074 49.125 24.0568 49.125 22.7273V11.5455H53.8636V22.3182C53.8636 22.858 53.983 23.3409 54.2216 23.767C54.4602 24.1875 54.7898 24.517 55.2102 24.7557C55.6364 24.9943 56.1193 25.1136 56.6591 25.1136C57.2045 25.1136 57.6875 24.9943 58.108 24.7557C58.5284 24.517 58.858 24.1875 59.0966 23.767C59.3352 23.3409 59.4545 22.858 59.4545 22.3182V11.5455ZM73.6385 11.5455H78.3089V23.5114C78.3033 24.6477 78.0163 25.6477 77.4482 26.5114C76.8857 27.3693 76.1072 28.0398 75.1129 28.5227C74.1243 29 72.9851 29.2386 71.6953 29.2386C70.576 29.2386 69.5533 29.0455 68.6271 28.6591C67.701 28.267 66.9624 27.6534 66.4112 26.8182C65.8601 25.9773 65.5874 24.8864 65.593 23.5455H70.3317C70.3487 23.983 70.4226 24.3523 70.5533 24.6534C70.6896 24.9545 70.8771 25.1818 71.1158 25.3352C71.3601 25.483 71.6555 25.5568 72.0021 25.5568C72.3544 25.5568 72.6499 25.4801 72.8885 25.3267C73.1328 25.1733 73.3175 24.946 73.4425 24.6449C73.5675 24.3381 73.6328 23.9602 73.6385 23.5114V11.5455ZM86.9297 29.2386C85.5092 29.2386 84.2933 28.9574 83.282 28.3949C82.2706 27.8267 81.495 27.0369 80.9553 26.0256C80.4155 25.0085 80.1456 23.8295 80.1456 22.4886C80.1456 21.1477 80.4155 19.9716 80.9553 18.9602C81.495 17.9432 82.2706 17.1534 83.282 16.5909C84.2933 16.0227 85.5092 15.7386 86.9297 15.7386C88.3501 15.7386 89.5661 16.0227 90.5774 16.5909C91.5888 17.1534 92.3643 17.9432 92.9041 18.9602C93.4439 19.9716 93.7138 21.1477 93.7138 22.4886C93.7138 23.8295 93.4439 25.0085 92.9041 26.0256C92.3643 27.0369 91.5888 27.8267 90.5774 28.3949C89.5661 28.9574 88.3501 29.2386 86.9297 29.2386ZM86.9638 25.7614C87.3615 25.7614 87.7053 25.6278 87.995 25.3608C88.2848 25.0937 88.5092 24.7131 88.6683 24.2188C88.8274 23.7244 88.907 23.1364 88.907 22.4545C88.907 21.767 88.8274 21.179 88.6683 20.6903C88.5092 20.196 88.2848 19.8153 87.995 19.5483C87.7053 19.2812 87.3615 19.1477 86.9638 19.1477C86.5433 19.1477 86.1825 19.2812 85.8814 19.5483C85.5803 19.8153 85.3501 20.196 85.1911 20.6903C85.032 21.179 84.9524 21.767 84.9524 22.4545C84.9524 23.1364 85.032 23.7244 85.1911 24.2188C85.3501 24.7131 85.5803 25.0937 85.8814 25.3608C86.1825 25.6278 86.5433 25.7614 86.9638 25.7614ZM104.112 23.2727V15.9091H108.816V29H104.35V26.5114H104.214C103.93 27.3466 103.433 28 102.722 28.4716C102.012 28.9375 101.168 29.1705 100.191 29.1705C99.2763 29.1705 98.4751 28.9602 97.7876 28.5398C97.1058 28.1193 96.5746 27.5398 96.1939 26.8011C95.8189 26.0625 95.6286 25.2159 95.6229 24.2614V15.9091H100.327V23.2727C100.333 23.9205 100.498 24.429 100.822 24.7983C101.151 25.1676 101.612 25.3523 102.202 25.3523C102.594 25.3523 102.933 25.2699 103.217 25.1051C103.506 24.9347 103.728 24.696 103.881 24.3892C104.04 24.0767 104.117 23.7045 104.112 23.2727ZM111.209 29V15.9091H115.777V18.3977H115.913C116.152 17.4773 116.53 16.804 117.047 16.3778C117.57 15.9517 118.18 15.7386 118.879 15.7386C119.084 15.7386 119.286 15.7557 119.484 15.7898C119.689 15.8182 119.885 15.8608 120.072 15.9176V19.9318C119.839 19.8523 119.553 19.7926 119.212 19.7528C118.871 19.7131 118.578 19.6932 118.334 19.6932C117.874 19.6932 117.459 19.7983 117.089 20.0085C116.726 20.2131 116.439 20.5028 116.229 20.8778C116.018 21.2472 115.913 21.6818 115.913 22.1818V29H111.209ZM126.32 21.6364V29H121.615V15.9091H126.081V18.3977H126.217C126.501 17.5682 127.001 16.9176 127.717 16.446C128.439 15.9744 129.28 15.7386 130.24 15.7386C131.166 15.7386 131.97 15.9517 132.652 16.3778C133.339 16.7983 133.871 17.3778 134.246 18.1165C134.626 18.8551 134.814 19.6989 134.808 20.6477V29H130.104V21.6364C130.109 20.9886 129.945 20.4801 129.609 20.1108C129.28 19.7415 128.82 19.5568 128.229 19.5568C127.842 19.5568 127.504 19.642 127.214 19.8125C126.93 19.9773 126.712 20.2159 126.558 20.5284C126.405 20.8352 126.325 21.2045 126.32 21.6364ZM140.778 29.2045C139.943 29.2045 139.205 29.0682 138.562 28.7955C137.926 28.517 137.426 28.0966 137.062 27.5341C136.699 26.9716 136.517 26.2557 136.517 25.3864C136.517 24.6705 136.639 24.0597 136.884 23.554C137.128 23.0426 137.469 22.625 137.906 22.3011C138.344 21.9773 138.852 21.7301 139.432 21.5597C140.017 21.3892 140.648 21.2784 141.324 21.2273C142.057 21.1705 142.645 21.1023 143.088 21.0227C143.537 20.9375 143.861 20.821 144.06 20.6733C144.259 20.5199 144.358 20.3182 144.358 20.0682V20.0341C144.358 19.6932 144.227 19.4318 143.966 19.25C143.705 19.0682 143.369 18.9773 142.96 18.9773C142.511 18.9773 142.145 19.0767 141.861 19.2756C141.582 19.4687 141.415 19.767 141.358 20.1705H137.028C137.085 19.375 137.338 18.642 137.787 17.9716C138.241 17.2955 138.903 16.7557 139.773 16.3523C140.642 15.9432 141.727 15.7386 143.028 15.7386C143.966 15.7386 144.807 15.8494 145.551 16.071C146.295 16.2869 146.929 16.5909 147.452 16.983C147.974 17.3693 148.372 17.8239 148.645 18.3466C148.923 18.8636 149.062 19.4261 149.062 20.0341V29H144.665V27.1591H144.562C144.301 27.6477 143.983 28.0426 143.608 28.3438C143.239 28.6449 142.815 28.8636 142.338 29C141.866 29.1364 141.347 29.2045 140.778 29.2045ZM142.312 26.2386C142.67 26.2386 143.006 26.1648 143.318 26.017C143.636 25.8693 143.895 25.6562 144.094 25.3778C144.293 25.0994 144.392 24.7614 144.392 24.3636V23.2727C144.267 23.3239 144.134 23.3722 143.991 23.4176C143.855 23.4631 143.707 23.5057 143.548 23.5455C143.395 23.5852 143.23 23.6222 143.054 23.6562C142.884 23.6903 142.705 23.7216 142.517 23.75C142.153 23.8068 141.855 23.9006 141.622 24.0312C141.395 24.1562 141.224 24.3125 141.111 24.5C141.003 24.6818 140.949 24.8864 140.949 25.1136C140.949 25.4773 141.077 25.7557 141.332 25.9489C141.588 26.142 141.915 26.2386 142.312 26.2386ZM156.015 11.5455V29H151.31V11.5455H156.015Z" fill="black"/>
<path d="M13.1406 27.3105H27.0171V37.2416H13.1406V27.3105Z" fill="#385AC0"/>
<path d="M27.0172 2.75879V37.2415L37.6286 27.3105V2.75879H27.0172Z" fill="url(#paint0_linear_507_12)"/>
<path d="M13.0942 2.75879V37.1839L2.48281 27.2529V2.75879H13.0942Z" fill="url(#paint1_linear_507_12)"/>
<path d="M25.3846 27.3105H27.0172V37.2416L25.3846 27.3105Z" fill="black" fill-opacity="0.15"/>
<defs>
<linearGradient id="paint0_linear_507_12" x1="32.3229" y1="2.75879" x2="32.3229" y2="37.2415" gradientUnits="userSpaceOnUse">
<stop stop-color="#5F84F2"/>
<stop offset="1" stop-color="#426AE1"/>
</linearGradient>
<linearGradient id="paint1_linear_507_12" x1="7.78852" y1="2.75879" x2="7.78852" y2="37.1839" gradientUnits="userSpaceOnUse">
<stop stop-color="#FFD601"/>
<stop offset="1" stop-color="#F1BF09"/>
</linearGradient>
</defs>
</svg>
