<svg width="40" height="40" viewBox="0 0 40 40" fill="none" xmlns="http://www.w3.org/2000/svg">
<path d="M15.9908 23.9839H23.984L23.9449 34.5942C23.6011 34.8485 23.3902 34.9723 22.8276 34.9999H17.1471C16.7295 34.9859 16.3965 34.9048 15.9907 34.6956L15.9908 23.9839Z" fill="#385AC0"/>
<path d="M15.9907 7.3508C15.9907 8.50395 15.9907 26.3876 15.9907 32.8191C15.9907 33.9856 16.2704 34.9734 17.1471 35C17.1471 35 16.0491 34.9901 15.3212 34.4421L7.99749 28.4801C5.00002 25.9822 5.00002 25.9822 5.00002 24.4835C5.00002 22.9848 5.00002 5 5.00002 5C5.00002 5 12.0824 5 13.4928 5C14.9033 5 15.9907 5.94032 15.9907 7.3508Z" fill="#F1BF09"/>
<path d="M21.9856 23.9839H23.9839L23.9838 34.6956C23.5592 34.9055 23.3162 34.9635 22.8782 34.9999C23.7151 34.9105 23.9497 34.5142 23.6621 32.9712L21.9856 23.9839Z" fill="black" fill-opacity="0.15"/>
<path d="M23.9839 7.3508C23.9839 8.50395 23.9433 26.3876 23.9433 32.8191C23.9433 33.9856 23.7042 34.9734 22.8275 35C22.8275 35 23.9255 34.9901 24.6534 34.4421L31.9771 28.4801C34.9746 25.9822 34.9746 25.9822 34.9746 24.4835C34.9746 22.9848 34.9746 5 34.9746 5C34.9746 5 27.8923 5 26.4818 5C25.0713 5 23.9839 5.94032 23.9839 7.3508Z" fill="#4169E1"/>
</svg>
