<svg width="40" height="40" viewBox="0 0 40 40" fill="none" xmlns="http://www.w3.org/2000/svg">
<path d="M15.9903 23.9839H23.9835L23.9444 34.5942C23.6006 34.8485 23.3898 34.9723 22.8271 34.9999H17.1466C16.729 34.9859 16.396 34.9048 15.9902 34.6956L15.9903 23.9839Z" fill="#385AC0"/>
<path d="M15.9901 7.3508C15.9901 8.50395 15.9901 26.3876 15.9901 32.8191C15.9901 33.9856 16.2698 34.9734 17.1465 35C17.1465 35 16.0485 34.9901 15.3206 34.4421L7.99688 28.4801C4.99941 25.9822 4.99941 25.9822 4.99941 24.4835C4.99941 22.9848 4.99941 5 4.99941 5C4.99941 5 12.0817 5 13.4922 5C14.9027 5 15.9901 5.94032 15.9901 7.3508Z" fill="#F1BF09"/>
<path d="M21.9863 23.9839H23.9846L23.9846 34.6956C23.5599 34.9055 23.3169 34.9635 22.879 34.9999C23.7158 34.9105 23.9504 34.5142 23.6629 32.9712L21.9863 23.9839Z" fill="black" fill-opacity="0.15"/>
<path d="M23.9845 7.3508C23.9845 8.50395 23.9439 26.3876 23.9439 32.8191C23.9439 33.9856 23.7048 34.9734 22.8281 35C22.8281 35 23.9261 34.9901 24.654 34.4421L31.9777 28.4801C34.9752 25.9822 34.9752 25.9822 34.9752 24.4835C34.9752 22.9848 34.9752 5 34.9752 5C34.9752 5 27.8929 5 26.4824 5C25.0719 5 23.9845 5.94032 23.9845 7.3508Z" fill="#4169E1"/>
</svg>
