<svg width="140" height="40" viewBox="0 0 140 40" fill="none" xmlns="http://www.w3.org/2000/svg">
<path d="M57.5455 12.4545H61.4943V21.7727C61.4943 22.8807 61.2292 23.8395 60.6989 24.6491C60.1733 25.4541 59.4394 26.0767 58.4972 26.517C57.5549 26.9527 56.4612 27.1705 55.2159 27.1705C53.9612 27.1705 52.8627 26.9527 51.9205 26.517C50.9782 26.0767 50.2443 25.4541 49.7188 24.6491C49.1979 23.8395 48.9375 22.8807 48.9375 21.7727V12.4545H52.8864V21.4318C52.8864 21.8816 52.9858 22.2841 53.1847 22.6392C53.3835 22.9896 53.6581 23.2642 54.0085 23.4631C54.3636 23.6619 54.7661 23.7614 55.2159 23.7614C55.6705 23.7614 56.0729 23.6619 56.4233 23.4631C56.7737 23.2642 57.0483 22.9896 57.2472 22.6392C57.446 22.2841 57.5455 21.8816 57.5455 21.4318V12.4545ZM69.3654 12.4545H73.2575V22.4261C73.2527 23.3731 73.0136 24.2064 72.5401 24.9261C72.0714 25.6411 71.4227 26.1998 70.5941 26.6023C69.7702 27 68.8209 27.1989 67.7461 27.1989C66.8133 27.1989 65.9611 27.0379 65.1893 26.7159C64.4175 26.3892 63.802 25.8778 63.3427 25.1818C62.8834 24.4811 62.6561 23.572 62.6609 22.4545H66.6097C66.6239 22.8191 66.6855 23.1269 66.7944 23.3778C66.908 23.6288 67.0643 23.8182 67.2631 23.946C67.4667 24.0691 67.7129 24.1307 68.0018 24.1307C68.2953 24.1307 68.5415 24.0668 68.7404 23.9389C68.944 23.8111 69.0979 23.6217 69.2021 23.3707C69.3062 23.1151 69.3607 22.8002 69.3654 22.4261V12.4545ZM80.4414 27.1989C79.2577 27.1989 78.2444 26.9645 77.4016 26.4957C76.5588 26.0223 75.9125 25.3641 75.4627 24.5213C75.0129 23.6738 74.788 22.6913 74.788 21.5739C74.788 20.4564 75.0129 19.4763 75.4627 18.6335C75.9125 17.786 76.5588 17.1278 77.4016 16.6591C78.2444 16.1856 79.2577 15.9489 80.4414 15.9489C81.6251 15.9489 82.6384 16.1856 83.4812 16.6591C84.324 17.1278 84.9703 17.786 85.4201 18.6335C85.8699 19.4763 86.0948 20.4564 86.0948 21.5739C86.0948 22.6913 85.8699 23.6738 85.4201 24.5213C84.9703 25.3641 84.324 26.0223 83.4812 26.4957C82.6384 26.9645 81.6251 27.1989 80.4414 27.1989ZM80.4698 24.3011C80.8013 24.3011 81.0877 24.1899 81.3292 23.9673C81.5707 23.7448 81.7577 23.4276 81.8903 23.0156C82.0228 22.6037 82.0891 22.1136 82.0891 21.5455C82.0891 20.9725 82.0228 20.4825 81.8903 20.0753C81.7577 19.6634 81.5707 19.3461 81.3292 19.1236C81.0877 18.901 80.8013 18.7898 80.4698 18.7898C80.1194 18.7898 79.8188 18.901 79.5678 19.1236C79.3169 19.3461 79.1251 19.6634 78.9925 20.0753C78.86 20.4825 78.7937 20.9725 78.7937 21.5455C78.7937 22.1136 78.86 22.6037 78.9925 23.0156C79.1251 23.4276 79.3169 23.7448 79.5678 23.9673C79.8188 24.1899 80.1194 24.3011 80.4698 24.3011ZM94.7596 22.2273V16.0909H98.68V27H94.9585V24.9261H94.8448C94.6081 25.6222 94.1938 26.1667 93.6019 26.5597C93.0101 26.9479 92.3069 27.142 91.4925 27.142C90.7302 27.142 90.0626 26.9669 89.4897 26.6165C88.9215 26.2661 88.4788 25.7831 88.1616 25.1676C87.8491 24.5521 87.6905 23.8466 87.6857 23.0511V16.0909H91.6062V22.2273C91.6109 22.767 91.7482 23.1908 92.0181 23.4986C92.2927 23.8063 92.6763 23.9602 93.1687 23.9602C93.4954 23.9602 93.7771 23.8916 94.0138 23.7543C94.2553 23.6122 94.44 23.4134 94.5678 23.1577C94.7004 22.8973 94.7643 22.5871 94.7596 22.2273ZM100.674 27V16.0909H104.481V18.1648H104.594C104.793 17.3977 105.108 16.8366 105.539 16.4815C105.975 16.1264 106.484 15.9489 107.066 15.9489C107.237 15.9489 107.405 15.9631 107.57 15.9915C107.741 16.0152 107.904 16.0507 108.06 16.098V19.4432C107.866 19.3769 107.627 19.3272 107.343 19.294C107.059 19.2609 106.815 19.2443 106.612 19.2443C106.228 19.2443 105.882 19.3319 105.575 19.5071C105.272 19.6776 105.032 19.919 104.857 20.2315C104.682 20.5393 104.594 20.9015 104.594 21.3182V27H100.674ZM113.266 20.8636V27H109.346V16.0909H113.067V18.1648H113.181C113.418 17.4735 113.835 16.9313 114.431 16.5384C115.032 16.1454 115.733 15.9489 116.533 15.9489C117.305 15.9489 117.975 16.1264 118.543 16.4815C119.116 16.8319 119.559 17.3149 119.871 17.9304C120.189 18.5459 120.345 19.2491 120.34 20.0398V27H116.42V20.8636C116.424 20.3239 116.287 19.9001 116.008 19.5923C115.733 19.2846 115.35 19.1307 114.857 19.1307C114.535 19.1307 114.254 19.2017 114.012 19.3438C113.775 19.4811 113.593 19.6799 113.465 19.9403C113.337 20.196 113.271 20.5038 113.266 20.8636ZM125.315 27.1705C124.619 27.1705 124.004 27.0568 123.469 26.8295C122.938 26.5975 122.522 26.2472 122.219 25.7784C121.916 25.3097 121.764 24.7131 121.764 23.9886C121.764 23.392 121.866 22.883 122.07 22.4616C122.273 22.0355 122.557 21.6875 122.922 21.4176C123.286 21.1477 123.71 20.9418 124.193 20.7997C124.681 20.6577 125.206 20.5653 125.77 20.5227C126.381 20.4754 126.871 20.4186 127.24 20.3523C127.614 20.2812 127.884 20.1842 128.05 20.0611C128.215 19.9332 128.298 19.7652 128.298 19.5568V19.5284C128.298 19.2443 128.189 19.0265 127.972 18.875C127.754 18.7235 127.474 18.6477 127.134 18.6477C126.759 18.6477 126.454 18.7306 126.217 18.8963C125.985 19.0573 125.846 19.3059 125.798 19.642H122.19C122.238 18.9792 122.448 18.3684 122.822 17.8097C123.201 17.2462 123.753 16.7964 124.477 16.4602C125.202 16.1193 126.106 15.9489 127.19 15.9489C127.972 15.9489 128.672 16.0412 129.293 16.2259C129.913 16.4058 130.441 16.6591 130.876 16.9858C131.312 17.3078 131.643 17.6866 131.871 18.1222C132.103 18.553 132.219 19.0218 132.219 19.5284V27H128.554V25.4659H128.469C128.251 25.8731 127.986 26.2022 127.673 26.4531C127.366 26.7041 127.013 26.8864 126.615 27C126.222 27.1136 125.789 27.1705 125.315 27.1705ZM126.594 24.6989C126.892 24.6989 127.171 24.6373 127.432 24.5142C127.697 24.3911 127.912 24.2135 128.078 23.9815C128.244 23.7495 128.327 23.4678 128.327 23.1364V22.2273C128.223 22.2699 128.111 22.3101 127.993 22.348C127.879 22.3859 127.756 22.4214 127.624 22.4545C127.496 22.4877 127.358 22.5185 127.212 22.5469C127.07 22.5753 126.92 22.6013 126.764 22.625C126.461 22.6723 126.213 22.7505 126.018 22.8594C125.829 22.9635 125.687 23.0938 125.592 23.25C125.502 23.4015 125.457 23.572 125.457 23.7614C125.457 24.0644 125.564 24.2964 125.777 24.4574C125.99 24.6184 126.262 24.6989 126.594 24.6989ZM138.012 12.4545V27H134.092V12.4545H138.012Z" fill="black"/>
<path d="M13.1406 27.3105H27.0171V37.2416H13.1406V27.3105Z" fill="#385AC0"/>
<path d="M27.0172 2.75879V37.2415L37.6286 27.3105V2.75879H27.0172Z" fill="url(#paint0_linear_363_514)"/>
<path d="M13.0942 2.75879V37.1839L2.48281 27.2529V2.75879H13.0942Z" fill="url(#paint1_linear_363_514)"/>
<path d="M25.3846 27.3105H27.0172V37.2416L25.3846 27.3105Z" fill="black" fill-opacity="0.15"/>
<defs>
<linearGradient id="paint0_linear_363_514" x1="32.3229" y1="2.75879" x2="32.3229" y2="37.2415" gradientUnits="userSpaceOnUse">
<stop stop-color="#5F84F2"/>
<stop offset="1" stop-color="#426AE1"/>
</linearGradient>
<linearGradient id="paint1_linear_363_514" x1="7.78852" y1="2.75879" x2="7.78852" y2="37.1839" gradientUnits="userSpaceOnUse">
<stop stop-color="#FFD601"/>
<stop offset="1" stop-color="#F1BF09"/>
</linearGradient>
</defs>
</svg>
