<svg width="112" height="47" viewBox="0 0 112 47" fill="none" xmlns="http://www.w3.org/2000/svg">
<rect width="112" height="46.4144" rx="8" fill="url(#paint0_linear_619_55)"/>
<path fill-rule="evenodd" clip-rule="evenodd" d="M24.8145 11.0924L24.8143 24.4478L24.8141 24.4552C24.8141 24.7243 24.6347 24.9037 24.1862 24.9037H21.854C21.4124 24.9037 21.2317 24.7298 21.2262 24.382L21.2262 11.0902C21.2262 9.32316 19.9278 8.00458 18.1607 8.00458H8V27.1061C8 29.1461 8.09949 29.291 9.69982 30.6167C10.5974 31.3602 11.7148 32.2805 12.8206 33.1913C14.9548 34.9491 17.0456 36.6711 17.4297 37.0179C18.2369 37.7467 18.533 38.0001 19.9256 38.0001H21.2262V37.9998H24.814V38H26.1595C27.5451 38 27.8279 37.7447 28.6258 37.0242L28.638 37.0133C29.022 36.6666 31.1125 34.9448 33.2464 33.1872L33.2469 33.1868C34.3527 32.276 35.4702 31.3557 36.3678 30.6121C37.9681 29.2865 38.0676 29.1416 38.0676 27.1015V8H27.9069C26.1398 8 24.8145 9.32531 24.8145 11.0924Z" fill="white"/>
<path d="M19.4864 26.5544H26.5547L26.5201 35.9369C26.2161 36.1618 26.0296 36.2713 25.5321 36.2957H20.5089C20.1396 36.2833 19.8452 36.2116 19.4863 36.0266L19.4864 26.5544Z" fill="#385AC0"/>
<path d="M19.4872 11.8456C19.4872 12.8653 19.4872 28.6796 19.4872 34.3669C19.4872 35.3985 19.7346 36.2719 20.5098 36.2955C20.5098 36.2955 19.5389 36.2867 18.8952 35.8021L12.4189 30.53C9.76827 28.3212 9.76827 28.3212 9.76827 26.9959C9.76827 25.6706 9.76827 9.76685 9.76827 9.76685C9.76827 9.76685 16.0311 9.76685 17.2784 9.76685C18.5256 9.76685 19.4872 10.5984 19.4872 11.8456Z" fill="#F1BF09"/>
<path d="M24.7871 26.5544H26.5542L26.5541 36.0266C26.1786 36.2122 25.9637 36.2636 25.5765 36.2957C26.3165 36.2167 26.5239 35.8662 26.2697 34.5018L24.7871 26.5544Z" fill="black" fill-opacity="0.15"/>
<path d="M26.5558 11.8456C26.5558 12.8653 26.5199 28.6796 26.5199 34.3669C26.5199 35.3985 26.3084 36.2719 25.5332 36.2955C25.5332 36.2955 26.5041 36.2867 27.1478 35.8021L33.6241 30.53C36.2747 28.3212 36.2747 28.3212 36.2747 26.9959C36.2747 25.6706 36.2747 9.76685 36.2747 9.76685C36.2747 9.76685 30.0119 9.76685 28.7646 9.76685C27.5174 9.76685 26.5558 10.5984 26.5558 11.8456Z" fill="#4169E1"/>
<path d="M52.0179 15.6363C52.0179 16.6079 51.829 17.4275 51.4512 18.0951C51.0733 18.7599 50.5634 19.2642 49.9213 19.6079C49.2793 19.9488 48.5634 20.1193 47.7736 20.1193C46.9782 20.1193 46.2594 19.9474 45.6174 19.6037C44.9782 19.2571 44.4696 18.7514 44.0918 18.0866C43.7168 17.419 43.5293 16.6022 43.5293 15.6363C43.5293 14.6647 43.7168 13.8466 44.0918 13.1818C44.4696 12.5142 44.9782 12.0099 45.6174 11.669C46.2594 11.3253 46.9782 11.1534 47.7736 11.1534C48.5634 11.1534 49.2793 11.3253 49.9213 11.669C50.5634 12.0099 51.0733 12.5142 51.4512 13.1818C51.829 13.8466 52.0179 14.6647 52.0179 15.6363ZM49.5804 15.6363C49.5804 15.1136 49.5108 14.6733 49.3716 14.3153C49.2353 13.9545 49.0321 13.6818 48.7623 13.4971C48.4952 13.3096 48.1657 13.2159 47.7736 13.2159C47.3816 13.2159 47.0506 13.3096 46.7807 13.4971C46.5137 13.6818 46.3105 13.9545 46.1713 14.3153C46.035 14.6733 45.9668 15.1136 45.9668 15.6363C45.9668 16.1591 46.035 16.6008 46.1713 16.9616C46.3105 17.3196 46.5137 17.5923 46.7807 17.7798C47.0506 17.9645 47.3816 18.0568 47.7736 18.0568C48.1657 18.0568 48.4952 17.9645 48.7623 17.7798C49.0321 17.5923 49.2353 17.3196 49.3716 16.9616C49.5108 16.6008 49.5804 16.1591 49.5804 15.6363Z" fill="white"/>
<path d="M57.8187 15.8238V17.5795H54.5289V15.8238H57.8187ZM55.3642 13.4545V20H53.1483V13.4545H55.3642ZM59.1994 13.4545V20H57.0005V13.4545H59.1994Z" fill="white"/>
<path d="M63.4735 20.1193C62.7633 20.1193 62.1554 19.9787 61.6497 19.6974C61.144 19.4133 60.7562 19.0184 60.4863 18.5128C60.2164 18.0042 60.0815 17.4147 60.0815 16.7443C60.0815 16.0738 60.2164 15.4858 60.4863 14.9801C60.7562 14.4716 61.144 14.0767 61.6497 13.7954C62.1554 13.5113 62.7633 13.3693 63.4735 13.3693C64.1838 13.3693 64.7917 13.5113 65.2974 13.7954C65.8031 14.0767 66.1909 14.4716 66.4608 14.9801C66.7306 15.4858 66.8656 16.0738 66.8656 16.7443C66.8656 17.4147 66.7306 18.0042 66.4608 18.5128C66.1909 19.0184 65.8031 19.4133 65.2974 19.6974C64.7917 19.9787 64.1838 20.1193 63.4735 20.1193ZM63.4906 18.3807C63.6895 18.3807 63.8613 18.3139 64.0062 18.1804C64.1511 18.0468 64.2633 17.8565 64.3429 17.6093C64.4224 17.3622 64.4622 17.0682 64.4622 16.7272C64.4622 16.3835 64.4224 16.0895 64.3429 15.8451C64.2633 15.598 64.1511 15.4076 64.0062 15.2741C63.8613 15.1406 63.6895 15.0738 63.4906 15.0738C63.2804 15.0738 63.1 15.1406 62.9494 15.2741C62.7988 15.4076 62.6838 15.598 62.6042 15.8451C62.5247 16.0895 62.4849 16.3835 62.4849 16.7272C62.4849 17.0682 62.5247 17.3622 62.6042 17.6093C62.6838 17.8565 62.7988 18.0468 62.9494 18.1804C63.1 18.3139 63.2804 18.3807 63.4906 18.3807Z" fill="white"/>
<path d="M67.8201 20V13.4545H70.6838C71.5616 13.4545 72.252 13.6037 72.7548 13.902C73.2605 14.2003 73.5133 14.6477 73.5133 15.2443C73.5133 15.5682 73.3713 15.8551 73.0872 16.1051C72.8059 16.3551 72.3968 16.5227 71.8599 16.6079C72.3542 16.6307 72.7548 16.7216 73.0616 16.8807C73.3713 17.0369 73.5971 17.2329 73.7392 17.4687C73.8841 17.7017 73.9565 17.9432 73.9565 18.1932C73.9565 18.5909 73.8485 18.9247 73.6326 19.1946C73.4167 19.4616 73.0985 19.6633 72.6781 19.7997C72.2576 19.9332 71.7406 20 71.127 20H67.8201ZM70.002 18.3466H71.127C71.3173 18.3466 71.4664 18.3011 71.5744 18.2102C71.6852 18.1193 71.7406 17.9943 71.7406 17.8352C71.7406 17.6704 71.6852 17.5412 71.5744 17.4474C71.4664 17.3537 71.3173 17.3068 71.127 17.3068H70.002V18.3466ZM70.002 16.1136H70.752C70.8741 16.1136 70.9778 16.0951 71.063 16.0582C71.1483 16.0184 71.2136 15.963 71.2591 15.892C71.3074 15.821 71.3315 15.7358 71.3315 15.6363C71.3315 15.4858 71.2733 15.3693 71.1568 15.2869C71.0431 15.2017 70.8855 15.1591 70.6838 15.1591H70.002V16.1136Z" fill="white"/>
<path d="M74.6074 20L74.5904 18.2272H74.7949C74.9228 18.2272 75.035 18.1903 75.1316 18.1164C75.231 18.0426 75.3148 17.9289 75.383 17.7755C75.454 17.6221 75.5094 17.4275 75.5492 17.1917C75.5918 16.9559 75.6188 16.6761 75.6301 16.3522L75.7324 13.4545H81.1188V20H78.9029V15.2102H77.812L77.7097 16.9829C77.6813 17.5397 77.6017 18.0113 77.4711 18.3977C77.3432 18.7841 77.1728 19.0951 76.9597 19.3309C76.7466 19.5639 76.4995 19.7343 76.2182 19.8423C75.937 19.9474 75.6273 20 75.2892 20H74.6074Z" fill="white"/>
<path d="M85.3823 20.1193C84.6834 20.1193 84.0811 19.9858 83.5755 19.7187C83.0726 19.4488 82.6848 19.0625 82.4121 18.5596C82.1422 18.054 82.0073 17.4488 82.0073 16.7443C82.0073 16.0682 82.1436 15.4772 82.4164 14.9716C82.6891 14.4659 83.074 14.0724 83.5712 13.7912C84.0684 13.5099 84.655 13.3693 85.3311 13.3693C85.8255 13.3693 86.2729 13.446 86.6735 13.5994C87.074 13.7528 87.4164 13.9758 87.7005 14.2684C87.9846 14.5582 88.2033 14.9105 88.3567 15.3253C88.5101 15.74 88.5868 16.2074 88.5868 16.7272V17.2727H82.7402V15.9772H86.4221C86.4192 15.7897 86.3709 15.625 86.2772 15.4829C86.1863 15.338 86.0627 15.2258 85.9064 15.1463C85.753 15.0639 85.5783 15.0227 85.3823 15.0227C85.1919 15.0227 85.0172 15.0639 84.8581 15.1463C84.699 15.2258 84.5712 15.3366 84.4746 15.4787C84.3809 15.6207 84.3311 15.7869 84.3255 15.9772V17.375C84.3255 17.5852 84.3695 17.7727 84.4576 17.9375C84.5456 18.1022 84.6721 18.2315 84.8368 18.3253C85.0016 18.419 85.2005 18.4659 85.4334 18.4659C85.5953 18.4659 85.7431 18.4432 85.8766 18.3977C86.013 18.3522 86.1294 18.2869 86.226 18.2017C86.3226 18.1136 86.3936 18.0085 86.4391 17.8863H88.5868C88.513 18.3409 88.3382 18.7358 88.0627 19.071C87.7871 19.4034 87.4221 19.6619 86.9675 19.8466C86.5158 20.0284 85.9874 20.1193 85.3823 20.1193Z" fill="white"/>
<path d="M94.2172 15.8238V17.5795H90.9274V15.8238H94.2172ZM91.7626 13.4545V20H89.5467V13.4545H91.7626ZM95.5978 13.4545V20H93.399V13.4545H95.5978Z" fill="white"/>
<path d="M98.5424 20.1022C98.1248 20.1022 97.7555 20.0341 97.4345 19.8977C97.1163 19.7585 96.8663 19.5483 96.6845 19.267C96.5027 18.9858 96.4118 18.6278 96.4118 18.1932C96.4118 17.8352 96.4728 17.5298 96.595 17.277C96.7172 17.0213 96.8876 16.8125 97.1064 16.6505C97.3251 16.4886 97.5794 16.365 97.8691 16.2798C98.1618 16.1946 98.4771 16.1392 98.8152 16.1136C99.1816 16.0852 99.4757 16.0511 99.6973 16.0113C99.9217 15.9687 100.084 15.9105 100.183 15.8366C100.282 15.7599 100.332 15.6591 100.332 15.5341V15.517C100.332 15.3466 100.267 15.2159 100.136 15.125C100.006 15.0341 99.8379 14.9886 99.6333 14.9886C99.4089 14.9886 99.2257 15.0383 99.0836 15.1378C98.9444 15.2343 98.8606 15.3835 98.8322 15.5852H96.6674C96.6958 15.1875 96.8223 14.821 97.0467 14.4858C97.274 14.1477 97.6049 13.8778 98.0396 13.6761C98.4743 13.4716 99.0169 13.3693 99.6674 13.3693C100.136 13.3693 100.557 13.4247 100.929 13.5355C101.301 13.6434 101.618 13.7954 101.879 13.9914C102.14 14.1846 102.339 14.4119 102.476 14.6733C102.615 14.9318 102.684 15.213 102.684 15.517V20H100.486V19.0795H100.434C100.304 19.3238 100.145 19.5213 99.9572 19.6718C99.7726 19.8224 99.5609 19.9318 99.3223 20C99.0865 20.0682 98.8265 20.1022 98.5424 20.1022ZM99.3095 18.6193C99.4885 18.6193 99.6561 18.5824 99.8123 18.5085C99.9714 18.4346 100.101 18.3281 100.2 18.1889C100.3 18.0497 100.349 17.8807 100.349 17.6818V17.1363C100.287 17.1619 100.22 17.1861 100.149 17.2088C100.081 17.2315 100.007 17.2528 99.9274 17.2727C99.8507 17.2926 99.7683 17.3111 99.6802 17.3281C99.595 17.3451 99.5055 17.3608 99.4118 17.375C99.2299 17.4034 99.0808 17.4503 98.9643 17.5156C98.8507 17.5781 98.7654 17.6562 98.7086 17.75C98.6547 17.8409 98.6277 17.9432 98.6277 18.0568C98.6277 18.2386 98.6916 18.3778 98.8194 18.4744C98.9473 18.571 99.1106 18.6193 99.3095 18.6193Z" fill="white"/>
<path d="M43.5975 35V28.4545H46.4611C47.339 28.4545 48.0293 28.6037 48.5321 28.902C49.0378 29.2003 49.2907 29.6477 49.2907 30.2443C49.2907 30.5682 49.1486 30.8551 48.8645 31.1051C48.5833 31.3551 48.1742 31.5227 47.6373 31.6079C48.1316 31.6307 48.5321 31.7216 48.839 31.8807C49.1486 32.0369 49.3745 32.2329 49.5165 32.4687C49.6614 32.7017 49.7338 32.9432 49.7338 33.1932C49.7338 33.5909 49.6259 33.9247 49.41 34.1946C49.1941 34.4616 48.8759 34.6633 48.4554 34.7997C48.035 34.9332 47.5179 35 46.9043 35H43.5975ZM45.7793 33.3466H46.9043C47.0946 33.3466 47.2438 33.3011 47.3517 33.2102C47.4625 33.1193 47.5179 32.9943 47.5179 32.8352C47.5179 32.6704 47.4625 32.5412 47.3517 32.4474C47.2438 32.3537 47.0946 32.3068 46.9043 32.3068H45.7793V33.3466ZM45.7793 31.1136H46.5293C46.6515 31.1136 46.7551 31.0951 46.8404 31.0582C46.9256 31.0184 46.9909 30.963 47.0364 30.892C47.0847 30.821 47.1088 30.7358 47.1088 30.6363C47.1088 30.4858 47.0506 30.3693 46.9341 30.2869C46.8205 30.2017 46.6628 30.1591 46.4611 30.1591H45.7793V31.1136Z" fill="white"/>
<path d="M53.7768 35.1193C53.0779 35.1193 52.4757 34.9858 51.97 34.7187C51.4672 34.4488 51.0794 34.0625 50.8066 33.5596C50.5368 33.0539 50.4018 32.4488 50.4018 31.7443C50.4018 31.0682 50.5382 30.4772 50.8109 29.9716C51.0836 29.4659 51.4686 29.0724 51.9657 28.7912C52.4629 28.5099 53.0495 28.3693 53.7257 28.3693C54.22 28.3693 54.6674 28.446 55.068 28.5994C55.4686 28.7528 55.8109 28.9758 56.095 29.2684C56.3791 29.5582 56.5978 29.9105 56.7512 30.3253C56.9047 30.74 56.9814 31.2074 56.9814 31.7272V32.2727H51.1348V30.9772H54.8166C54.8137 30.7897 54.7654 30.625 54.6717 30.4829C54.5808 30.338 54.4572 30.2258 54.301 30.1463C54.1475 30.0639 53.9728 30.0227 53.7768 30.0227C53.5865 30.0227 53.4118 30.0639 53.2527 30.1463C53.0936 30.2258 52.9657 30.3366 52.8691 30.4787C52.7754 30.6207 52.7257 30.7869 52.72 30.9772V32.375C52.72 32.5852 52.764 32.7727 52.8521 32.9375C52.9402 33.1022 53.0666 33.2315 53.2314 33.3253C53.3961 33.419 53.595 33.4659 53.8279 33.4659C53.9899 33.4659 54.1376 33.4432 54.2711 33.3977C54.4075 33.3522 54.524 33.2869 54.6206 33.2017C54.7172 33.1136 54.7882 33.0085 54.8336 32.8863H56.9814C56.9075 33.3409 56.7328 33.7358 56.4572 34.071C56.1816 34.4034 55.8166 34.6619 55.362 34.8466C54.9103 35.0284 54.3819 35.1193 53.7768 35.1193Z" fill="white"/>
<path d="M57.9412 37.4545V28.4545H60.2765V29.5966H60.3276C60.4128 29.375 60.5378 29.1718 60.7026 28.9872C60.8674 28.7997 61.0719 28.6505 61.3162 28.5397C61.5605 28.4261 61.8446 28.3693 62.1685 28.3693C62.6003 28.3693 63.0108 28.4843 63.4 28.7145C63.7921 28.9446 64.1103 29.3068 64.3546 29.8011C64.6017 30.2954 64.7253 30.9375 64.7253 31.7272C64.7253 32.4829 64.6074 33.1093 64.3716 33.6065C64.1387 34.1037 63.8262 34.4744 63.4341 34.7187C63.0449 34.963 62.6174 35.0852 62.1515 35.0852C61.8446 35.0852 61.5705 35.0355 61.329 34.9361C61.0904 34.8338 60.8858 34.696 60.7154 34.5227C60.5478 34.3466 60.4185 34.1477 60.3276 33.9261H60.2935V37.4545H57.9412ZM60.2424 31.7272C60.2424 32.0454 60.2836 32.321 60.3659 32.5539C60.4512 32.7841 60.5705 32.963 60.7239 33.0909C60.8801 33.2159 61.0662 33.2784 61.2821 33.2784C61.498 33.2784 61.6813 33.2173 61.8319 33.0951C61.9853 32.9701 62.1017 32.7926 62.1813 32.5625C62.2637 32.3295 62.3049 32.0511 62.3049 31.7272C62.3049 31.4034 62.2637 31.1264 62.1813 30.8963C62.1017 30.6633 61.9853 30.4858 61.8319 30.3636C61.6813 30.2386 61.498 30.1761 61.2821 30.1761C61.0662 30.1761 60.8801 30.2386 60.7239 30.3636C60.5705 30.4858 60.4512 30.6633 60.3659 30.8963C60.2836 31.1264 60.2424 31.4034 60.2424 31.7272Z" fill="white"/>
<path d="M68.8642 35.1193C68.1539 35.1193 67.546 34.9787 67.0403 34.6974C66.5346 34.4133 66.1468 34.0184 65.877 33.5128C65.6071 33.0042 65.4721 32.4147 65.4721 31.7443C65.4721 31.0738 65.6071 30.4858 65.877 29.9801C66.1468 29.4716 66.5346 29.0767 67.0403 28.7954C67.546 28.5113 68.1539 28.3693 68.8642 28.3693C69.5062 28.3693 70.0616 28.4858 70.5304 28.7187C71.002 28.9488 71.367 29.2755 71.6255 29.6988C71.8841 30.1193 72.0147 30.6136 72.0176 31.1818H69.8358C69.8045 30.838 69.7051 30.5767 69.5375 30.3977C69.3727 30.2159 69.1596 30.125 68.8983 30.125C68.6937 30.125 68.5147 30.1846 68.3613 30.3039C68.2079 30.4204 68.0886 30.598 68.0034 30.8366C67.9181 31.0724 67.8755 31.3693 67.8755 31.7272C67.8755 32.0852 67.9181 32.3835 68.0034 32.6221C68.0886 32.8579 68.2079 33.0355 68.3613 33.1548C68.5147 33.2713 68.6937 33.3295 68.8983 33.3295C69.0716 33.3295 69.225 33.2897 69.3585 33.2102C69.492 33.1278 69.6 33.0085 69.6824 32.8522C69.7676 32.6932 69.8187 32.5 69.8358 32.2727H72.0176C72.0091 32.8494 71.877 33.3522 71.6213 33.7812C71.3656 34.2074 71.0034 34.5369 70.5346 34.7699C70.0687 35.0028 69.5119 35.1193 68.8642 35.1193Z" fill="white"/>
<path d="M72.9881 35V28.4545H75.3404V35H72.9881ZM74.1642 27.7727C73.8461 27.7727 73.5733 27.6676 73.3461 27.4574C73.1188 27.2471 73.0051 26.9943 73.0051 26.6988C73.0051 26.4034 73.1188 26.1505 73.3461 25.9403C73.5733 25.7301 73.8461 25.625 74.1642 25.625C74.4853 25.625 74.758 25.7301 74.9824 25.9403C75.2097 26.1505 75.3233 26.4034 75.3233 26.6988C75.3233 26.9943 75.2097 27.2471 74.9824 27.4574C74.758 27.6676 74.4853 27.7727 74.1642 27.7727Z" fill="white"/>
<path d="M80.3059 35V30.2102H79.4196C79.1241 30.2102 78.9068 30.2784 78.7676 30.4147C78.6284 30.5511 78.5616 30.6875 78.5673 30.8238C78.5616 30.9687 78.6326 31.1051 78.7804 31.2329C78.9281 31.3579 79.1582 31.4204 79.4707 31.4204H81.1412V32.8352H79.4707C78.8315 32.8352 78.2775 32.7457 77.8088 32.5667C77.34 32.3878 76.9792 32.1406 76.7264 31.8253C76.4735 31.5099 76.3485 31.1477 76.3514 30.7386C76.3485 30.2954 76.4707 29.902 76.7179 29.5582C76.9679 29.2145 77.323 28.9446 77.7832 28.7486C78.2463 28.5525 78.7917 28.4545 79.4196 28.4545H82.4877V35H80.3059ZM76.2832 35L78.073 31.4886H80.2377L78.448 35H76.2832Z" fill="white"/>
<defs>
<linearGradient id="paint0_linear_619_55" x1="0" y1="0" x2="112.295" y2="0.724174" gradientUnits="userSpaceOnUse">
<stop stop-color="#55ADFF"/>
<stop offset="1" stop-color="#F37ABB"/>
</linearGradient>
</defs>
</svg>
