<svg width="760" height="570" viewBox="0 0 760 570" fill="none" xmlns="http://www.w3.org/2000/svg">
<g clip-path="url(#clip0_636_2)">
<path fill-rule="evenodd" clip-rule="evenodd" d="M339.199 343.323V266.849H463.246V322.351L435.113 289.866L429.484 287.565L386.004 335.394L368.102 324.142L339.199 343.323ZM354.547 287.565C354.547 294.216 360.172 299.842 366.82 299.842C373.473 299.842 379.098 294.216 379.098 287.565C379.098 280.912 373.473 275.286 366.82 275.286C360.172 275.286 354.547 280.915 354.547 287.565Z" fill="#D6D6D6"/>
<path fill-rule="evenodd" clip-rule="evenodd" d="M486 374.531H316.18V362.51L299.555 365.323L275 225.415L442.531 196L450.715 243.831H486V374.531ZM310.809 349.461L316.18 348.44V243.829H436.906L431.277 211.855L290.859 236.667L310.809 349.461ZM329.992 360.717H472.457V257.642H329.992V360.717Z" fill="#D6D6D6"/>
</g>
<defs>
<clipPath id="clip0_636_2">
<rect width="760" height="570" fill="white"/>
</clipPath>
</defs>
</svg>
