<?xml version="1.0" standalone="no"?>
<!DOCTYPE svg PUBLIC "-//W3C//DTD SVG 20010904//EN"
 "http://www.w3.org/TR/2001/REC-SVG-20010904/DTD/svg10.dtd">
<svg version="1.0" xmlns="http://www.w3.org/2000/svg"
 width="700.000000pt" height="700.000000pt" viewBox="0 0 700.000000 700.000000"
 preserveAspectRatio="xMidYMid meet">
<metadata>
Created by potrace 1.14, written by Peter Selinger 2001-2017
</metadata>
<g transform="translate(0.000000,700.000000) scale(0.100000,-0.100000)"
fill="#000000" stroke="none">
<path d="M877 6115 c-6 -20 0 -3531 7 -3564 26 -129 108 -205 991 -922 220
-179 460 -374 534 -435 332 -271 345 -279 496 -307 92 -17 1136 -16 1207 1 91
23 160 54 226 105 37 28 69 53 72 56 3 4 64 53 135 111 72 57 132 107 135 110
6 6 66 55 210 171 57 46 114 91 125 101 11 9 52 43 91 75 39 32 90 74 114 93
24 19 76 61 115 92 38 32 75 61 80 66 60 48 171 138 175 142 3 3 32 28 65 55
278 230 392 342 432 424 l28 56 3 1790 2 1790 -787 -1 c-785 -1 -788 -1 -851
-23 -107 -37 -165 -81 -223 -170 -65 -100 -61 -8 -65 -1601 -1 -795 -3 -1463
-3 -1486 l-1 -41 -696 1 -696 1 0 1471 c0 825 -4 1492 -9 1519 -30 160 -164
291 -329 321 -68 12 -1579 11 -1583 -1z"/>
</g>
</svg>
